<svg width="1078" height="794" viewBox="0 0 1078 794" fill="none" xmlns="http://www.w3.org/2000/svg">
<path d="M892.816 240.79C895.485 255.882 896.894 271.151 896.924 286.49C897.237 435.073 768.498 533.449 609.38 506.217C450.254 478.984 321.009 336.456 320.695 187.867C375.738 179.42 431.772 168.485 487.202 155.367C487.411 254.079 573.274 348.768 678.983 366.855C770.228 382.474 846.436 335.916 865.447 259.404M871.616 199.256C871.646 212.761 868.455 247.286 865.443 259.414M360.322 330.387C410.608 304.824 462.162 277.794 513.529 250.054M463.88 444.599C501.731 405.321 541.587 365.389 582.322 325.927M542.544 141.508C542.723 225.452 615.741 305.97 705.629 321.36M597.452 126.211C597.601 196.409 658.66 263.745 733.832 276.609M513.528 250.055C564.902 222.309 616.515 193.623 666.943 164.797M582.324 325.929C623.067 286.461 665.033 247.132 707.051 209.041M678.98 366.862C704.791 321.066 733.196 276 763.412 232.901M705.628 321.356C813.894 337.926 881.931 253.36 871.62 172.265M733.829 276.608C809.001 289.472 872.073 242.762 871.924 172.564M775.535 358.991C786.428 314.414 801.293 270.446 819.715 228.312M844.072 306.627C844.378 270.142 858.558 201.46 868.615 165.717M666.932 164.793C717.844 135.682 762.814 109.217 810.804 80.1184M648.798 6.46521C658.393 6.72541 668.219 7.69009 678.224 9.40363C693.612 12.0374 728.555 16.8924 742.899 22.5407M320.691 187.868C375.733 179.421 431.767 168.492 487.197 155.374C486.989 56.6618 572.516 -8.69389 678.225 9.39981C652.295 -0.0309992 628.751 -13.917 608.234 -31.8584C449.116 -59.091 320.377 39.2852 320.691 187.868ZM320.691 187.868C265.111 196.398 210.032 202.465 156.98 205.904C157.42 411.739 336.459 609.183 556.883 646.906C571.138 600.678 588.792 553.347 609.368 506.218C450.25 478.985 321.004 336.457 320.691 187.868ZM462.896 -20.0156C500.866 -3.49585 540.827 9.05104 581.667 17.2633M359.743 58.8136C410.096 65.8645 461.716 69.5136 513.143 69.6342M651.589 109.586C597.948 126.855 542.644 142.258 487.199 155.376C486.991 56.6631 572.518 -8.69251 678.227 9.40118M742.896 22.54C653 7.15624 542.356 57.566 542.535 141.51M743.79 22.6902C668.618 9.82592 597.301 56.0217 597.45 126.22M581.673 17.2716C622.52 25.4966 664.576 29.4631 706.676 29.0633M513.142 69.6367C564.576 69.77 616.242 66.3874 666.714 59.5967M666.716 59.5949C701.137 54.962 735.208 48.7044 768.496 40.9236M678.979 366.862C704.79 321.066 733.194 276 763.411 232.901M794.594 189.978C825.474 195.265 852.656 185.257 868.602 165.722M826.992 148.391C838.622 150.384 849.574 149.571 859.184 146.468M513.524 250.058C564.899 222.311 616.512 193.625 666.94 164.799M582.32 325.932C623.064 286.463 665.03 247.134 707.048 209.043M819.713 228.321C801.291 270.455 786.425 314.423 775.533 359C762.196 419.526 758.848 432.733 754.83 494.389M846.198 125.065C812.365 164.159 793.928 189.399 763.414 232.91C701.773 222.362 651.711 167.148 651.584 109.592C705.74 92.1585 739.944 80.3795 790.186 59.3855M705.286 91.4863C705.383 137.454 745.373 181.555 794.601 189.977M757.847 72.1422C757.921 107.733 788.883 141.877 826.995 148.395M707.058 209.035C749.486 170.569 787.203 137.536 829.303 101.945M819.71 228.322C831.646 201.026 845.147 174.346 860.043 148.579M651.59 109.587C597.949 126.855 542.645 142.258 487.2 155.376C486.991 56.6638 572.519 -8.69178 678.228 9.40192M749.855 26.9617C723.157 36.7606 705.227 60.6233 705.294 91.486M767.876 40.2892C761.494 48.9711 757.826 59.8363 757.849 72.142M523.823 784.866C235.652 735.541 1.57815 477.413 1.01153 208.317C50.4775 210.221 102.955 209.408 156.991 205.905C157.424 411.739 336.463 609.183 556.894 646.913C542.371 693.997 531.255 740.409 523.823 784.866ZM523.823 784.866C811.993 834.19 1045.15 656.027 1044.58 386.931C1044.02 117.836 809.942 -140.293 521.765 -189.611C233.587 -238.936 0.437455 -60.7722 1.00407 208.323M1.01295 208.318C1.57957 477.413 235.654 735.542 523.824 784.867M523.828 784.866C811.998 834.185 1045.15 656.027 1044.58 386.932M1044.59 386.922C1044.02 117.827 809.948 -140.302 521.771 -189.62M1121.69 409.135C1121.03 94.9547 847.739 -206.419 511.281 -264M1081.58 398.885C1080.97 107.393 827.412 -172.219 515.251 -225.643M521.762 -189.61C233.585 -238.935 0.435014 -60.7711 1.00163 208.324M72.7698 466.434C116.465 447.585 163.262 426.356 211.878 403.344M260.329 673.269C288.943 637.786 320.911 600.196 355.34 561.546M787.043 763.413C773.311 720.682 763.611 675.965 758.229 630.499M973.867 620.656C945.112 589.407 920.629 555.98 901.133 521.309M972.83 128.816C944.157 137.111 919.763 142.594 900.342 145.095M785.271 -78.0142C771.68 -53.0917 762.122 -31.2473 756.874 -13.1091M555.318 -98.4741C540.646 -125.047 529.366 -155.719 521.769 -189.615C233.592 -238.934 0.441844 -60.7699 1.001 208.319C50.467 210.223 102.945 209.417 156.981 205.908M555.318 -98.4741C334.887 -136.204 156.549 0.07341 156.981 205.908M555.318 -98.4741C569.722 -72.3839 587.525 -49.9679 608.236 -31.8551C449.117 -59.0877 320.379 39.2884 320.692 187.871C265.113 196.401 210.033 202.468 156.981 205.908M555.318 -98.4741C334.887 -136.197 156.549 0.0797272 156.981 205.908M258.553 -168.163C287.308 -135.993 319.418 -107.015 353.981 -82.0672C387.917 -57.57 424.56 -36.691 462.896 -20.0125M71.7276 -25.4031C115.505 -4.7137 162.392 12.9738 211.082 27.1327M1.0092 208.317C50.4752 210.221 102.953 209.408 156.989 205.905C157.422 411.739 336.461 609.183 556.892 646.913M1.0092 208.317C50.4677 210.221 102.953 209.415 156.982 205.905C156.549 0.0709076 334.888 -136.206 555.319 -98.4765C775.742 -60.7533 954.789 136.691 955.221 342.525C955.661 548.359 777.315 684.636 556.892 646.913M1.0092 208.317C0.442583 -60.7787 233.592 -238.942 521.77 -189.618C809.947 -140.293 1044.01 117.829 1044.59 386.925C1045.15 656.026 811.998 834.184 523.82 784.865C235.643 735.547 1.57581 477.412 1.0092 208.317ZM556.892 646.913C571.146 600.685 588.8 553.353 609.377 506.225C768.495 533.457 897.234 435.081 896.921 286.498C911.212 306.985 930.827 325.834 955.221 342.531C955.661 548.359 777.316 684.636 556.892 646.913ZM51.426 209.319C51.9479 456.913 267.324 694.422 532.472 739.805M103.521 208.513C103.998 434.979 300.99 652.218 543.518 693.723M532.475 739.802C797.63 785.185 1012.16 621.257 1011.63 373.657M543.522 693.721C786.043 735.226 982.259 585.292 981.782 358.825M1011.63 373.661C1011.11 126.061 795.735 -111.442 530.587 -156.825M981.781 358.831C981.304 132.364 784.312 -84.8743 541.791 -126.38M530.585 -156.824C265.43 -202.207 50.9031 -38.2788 51.425 209.321M541.786 -126.379C299.265 -167.885 103.049 -17.9504 103.526 208.516M211.875 403.337C259.603 380.738 309.539 356.196 360.317 330.391M355.335 561.548C389.145 523.602 425.661 484.254 463.877 444.596M758.227 630.507C752.942 585.872 751.764 540.07 754.716 494.382M901.126 521.305C881.981 487.263 867.428 451.684 857.87 415.548C847.984 385.263 846.195 342.526 844.07 306.63M900.335 145.096C881.265 147.558 866.786 147.178 857.296 143.973M756.866 -13.1148C751.715 4.69329 750.664 19.1187 753.728 29.7617M211.077 27.1283C258.881 41.0333 308.898 51.6954 359.736 58.8161M743.505 22.5571C734.655 22.3159 728.527 23.179 720.498 24.8989C679.948 33.5808 651.462 65.9985 651.559 109.535C597.918 126.804 542.622 142.207 487.191 155.318M897.071 286.45C897.071 286.45 872.193 258.71 871.611 172.272M927.849 339.761C937.459 157.872 785.483 -23.2174 588.409 -64.7041M553.621 593.987C356.547 552.5 204.571 371.417 214.181 189.522M927.85 339.76C918.241 521.656 750.697 635.473 553.624 593.986M214.175 189.529C223.785 7.63974 391.328 -106.184 588.401 -64.6969M642.238 436.3C509.206 413.421 401.193 293.873 400.985 169.28M882.499 255.535C882.708 380.128 775.27 459.173 642.237 436.301M400.98 169.28C400.771 44.6871 528.592 -35.2336 661.625 -12.3547M910.6 316.682C919.285 152.227 781.876 -11.5048 603.695 -49.0123M572.244 546.541C394.062 509.033 256.654 345.301 265.339 180.846M910.604 316.682C901.918 481.137 750.426 584.051 572.245 546.537M265.339 180.842C274.025 16.3869 425.517 -86.527 603.698 -49.0132M708.051 5.17255C686.154 -5.0833 662.953 -12.9846 638.843 -18.0618M613.091 469.409C467.243 438.705 354.772 304.694 361.884 170.079C368.996 35.4651 492.993 -48.7655 638.841 -18.0678M613.094 469.408C758.942 500.113 882.938 415.876 890.051 281.262C890.051 281.262 889.119 221.967 877.779 187.595M447.056 151.079C441.196 262.034 533.903 372.5 654.12 397.81C760.813 420.27 853.325 368.109 876.884 278.522C881.469 261.101 882.684 243.864 881.17 227.319C879.56 209.784 876.384 182.272 871.605 172.27M447.056 151.08C452.916 40.1193 555.128 -29.3108 675.345 -4.00116C675.345 -4.00116 705.703 -0.358315 742.898 22.546M763.409 232.91C827.971 242.373 871.257 209.816 868.603 165.727M320.694 187.867C375.737 179.419 431.771 168.485 487.201 155.366C487.41 254.079 573.273 348.768 678.981 366.855C653.171 412.639 629.754 459.532 609.371 506.21C450.253 478.984 321.007 336.456 320.694 187.867ZM523.825 784.864C531.258 740.413 542.374 693.995 556.889 646.911C777.321 684.634 955.667 548.357 955.227 342.523C980.068 359.531 1010.14 374.465 1044.59 386.923C1045.15 656.024 812.003 834.182 523.825 784.864ZM1044.59 386.933C1010.15 374.475 980.067 359.535 955.226 342.533C954.794 136.699 775.747 -60.7453 555.323 -98.4686C540.651 -125.041 529.364 -155.714 521.774 -189.61C809.944 -140.292 1044.02 117.837 1044.59 386.933ZM955.223 342.527C930.829 325.829 911.214 306.98 896.922 286.494C896.609 137.911 767.364 -4.62346 608.238 -31.856C587.527 -49.9751 569.724 -72.3844 555.32 -98.4746C775.744 -60.745 954.791 136.699 955.223 342.527Z" stroke="url(#paint0_radial_1530_3552)" stroke-miterlimit="10"/>
<defs>
<radialGradient id="paint0_radial_1530_3552" cx="0" cy="0" r="1" gradientUnits="userSpaceOnUse" gradientTransform="translate(833 49.5001) rotate(81.0437) scale(818.985 868.278)">
<stop offset="0.730564" stop-color="#E9E9E9"/>
<stop offset="1" stop-color="#E9E9E9" stop-opacity="0"/>
</radialGradient>
</defs>
</svg>
