<svg width="248" height="47" viewBox="0 0 248 47" fill="none" xmlns="http://www.w3.org/2000/svg">
<path d="M0 37.9V9.92285H7.91353V31.6251H21.2626V37.9H0Z" fill="url(#paint0_linear_5626_4019)"/>
<path d="M24.3941 37.9V9.92285H32.3077V37.9H24.3941Z" fill="url(#paint1_linear_5626_4019)"/>
<path d="M37.9378 37.9V9.92285H52.2461C55.9231 9.92285 58.6675 10.6023 60.4793 11.9612C62.2912 13.2934 63.1971 15.052 63.1971 17.2369C63.1971 18.6757 62.8108 19.9413 62.0381 21.0338C61.292 22.0996 60.2262 22.9522 58.8407 23.5917C57.4818 24.2045 55.8564 24.5109 53.9647 24.5109L54.764 22.5925C56.7357 22.5925 58.4543 22.8989 59.9198 23.5117C61.3853 24.0979 62.5177 24.9639 63.317 26.1096C64.143 27.2287 64.556 28.6009 64.556 30.2263C64.556 32.6509 63.5701 34.5427 61.5984 35.9016C59.6533 37.2339 56.8023 37.9 53.0454 37.9H37.9378ZM45.7714 32.1847H52.4059C53.7648 32.1847 54.7906 31.9582 55.4834 31.5052C56.2028 31.0256 56.5625 30.3062 56.5625 29.347C56.5625 28.3878 56.2028 27.6817 55.4834 27.2287C54.7906 26.7491 53.7648 26.5093 52.4059 26.5093H45.2118V21.0338H51.2069C52.5392 21.0338 53.5383 20.8073 54.2045 20.3543C54.8706 19.9014 55.2036 19.2219 55.2036 18.316C55.2036 17.4101 54.8706 16.7439 54.2045 16.3176C53.5383 15.8647 52.5392 15.6382 51.2069 15.6382H45.7714V32.1847Z" fill="url(#paint2_linear_5626_4019)"/>
<path d="M68.6548 37.9V9.92285H81.4444C84.0023 9.92285 86.2005 10.3358 88.039 11.1618C89.9041 11.9878 91.343 13.1869 92.3555 14.7589C93.368 16.3043 93.8742 18.1428 93.8742 20.2744C93.8742 22.3793 93.368 24.2045 92.3555 25.7499C91.343 27.2687 89.9041 28.4411 88.039 29.267C86.2005 30.0664 84.0023 30.4661 81.4444 30.4661H73.0512L76.5684 27.1488V37.9H68.6548ZM85.9607 37.9L79.0064 27.7083H87.4395L94.4338 37.9H85.9607ZM76.5684 27.9881L73.0512 24.3511H80.9648C82.6168 24.3511 83.8424 23.9914 84.6418 23.2719C85.4678 22.5525 85.8808 21.5533 85.8808 20.2744C85.8808 18.9688 85.4678 17.9563 84.6418 17.2369C83.8424 16.5175 82.6168 16.1578 80.9648 16.1578H73.0512L76.5684 12.5207V27.9881Z" fill="url(#paint3_linear_5626_4019)"/>
<path d="M94.8828 37.9L107.233 9.92285H115.026L127.416 37.9H119.183L109.511 13.7997H112.628L102.956 37.9H94.8828ZM101.637 32.4644L103.676 26.6292H117.344L119.383 32.4644H101.637Z" fill="url(#paint4_linear_5626_4019)"/>
<path d="M129.66 37.9V9.92285H142.449C145.007 9.92285 147.205 10.3358 149.044 11.1618C150.909 11.9878 152.348 13.1869 153.36 14.7589C154.373 16.3043 154.879 18.1428 154.879 20.2744C154.879 22.3793 154.373 24.2045 153.36 25.7499C152.348 27.2687 150.909 28.4411 149.044 29.267C147.205 30.0664 145.007 30.4661 142.449 30.4661H134.056L137.573 27.1488V37.9H129.66ZM146.966 37.9L140.011 27.7083H148.444L155.439 37.9H146.966ZM137.573 27.9881L134.056 24.3511H141.97C143.622 24.3511 144.847 23.9914 145.647 23.2719C146.473 22.5525 146.886 21.5533 146.886 20.2744C146.886 18.9688 146.473 17.9563 145.647 17.2369C144.847 16.5175 143.622 16.1578 141.97 16.1578H134.056L137.573 12.5207V27.9881Z" fill="url(#paint5_linear_5626_4019)"/>
<path d="M159.245 37.9V9.92285H167.158V37.9H159.245Z" fill="url(#paint6_linear_5626_4019)"/>
<path d="M169.431 37.9L181.781 9.92285H189.575L201.965 37.9H193.731L184.059 13.7997H187.177L177.505 37.9H169.431ZM176.186 32.4644L178.224 26.6292H191.893L193.931 32.4644H176.186Z" fill="url(#paint7_linear_5626_4019)"/>
<path d="M225.145 46.9998H238.189L231.667 33.0408L228.406 40.0203L228.347 40.1143L225.145 46.9998Z" fill="url(#paint8_linear_5626_4019)"/>
<path d="M247.117 0L243.72 7.2615L243.449 7.8255L240.013 15.2045L239.799 15.651L236.286 23.1475L236.131 23.5L232.578 31.114L231.666 33.041L225.144 47H225.125L223.164 42.77L224.853 39.1745L224.911 39.057L228.521 31.3255L228.619 31.114L232.19 23.5L232.345 23.1475L235.839 15.651L236.053 15.2045L239.508 7.8255L239.78 7.2615L243.177 0H247.117Z" fill="url(#paint9_linear_5626_4019)"/>
<path d="M240.712 0L237.315 7.2615L237.044 7.8255L233.588 15.2045L233.375 15.651L229.861 23.1475L229.706 23.5L226.154 31.114L226.057 31.3255L222.427 39.057L222.388 39.1745L221.922 40.138L219.942 44.368L218.72 47L215.051 39.1745L214.993 39.057L211.382 31.3255L211.285 31.114L214.837 23.5L214.993 23.1475L218.506 15.651L218.72 15.2045L222.175 7.8255L222.427 7.2615L225.824 0H240.712Z" fill="url(#paint10_linear_5626_4019)"/>
<defs>
<linearGradient id="paint0_linear_5626_4019" x1="12.049" y1="23.7129" x2="182.798" y2="23.7129" gradientUnits="userSpaceOnUse">
<stop stop-color="#E00CFF"/>
<stop offset="0.546875" stop-color="#A91BF5"/>
<stop offset="1" stop-color="#7407E3"/>
</linearGradient>
<linearGradient id="paint1_linear_5626_4019" x1="12.049" y1="23.7129" x2="182.798" y2="23.7129" gradientUnits="userSpaceOnUse">
<stop stop-color="#E00CFF"/>
<stop offset="0.546875" stop-color="#A91BF5"/>
<stop offset="1" stop-color="#7407E3"/>
</linearGradient>
<linearGradient id="paint2_linear_5626_4019" x1="12.049" y1="23.7129" x2="182.798" y2="23.7129" gradientUnits="userSpaceOnUse">
<stop stop-color="#E00CFF"/>
<stop offset="0.546875" stop-color="#A91BF5"/>
<stop offset="1" stop-color="#7407E3"/>
</linearGradient>
<linearGradient id="paint3_linear_5626_4019" x1="12.049" y1="23.7129" x2="182.798" y2="23.7129" gradientUnits="userSpaceOnUse">
<stop stop-color="#E00CFF"/>
<stop offset="0.546875" stop-color="#A91BF5"/>
<stop offset="1" stop-color="#7407E3"/>
</linearGradient>
<linearGradient id="paint4_linear_5626_4019" x1="12.049" y1="23.7129" x2="182.798" y2="23.7129" gradientUnits="userSpaceOnUse">
<stop stop-color="#E00CFF"/>
<stop offset="0.546875" stop-color="#A91BF5"/>
<stop offset="1" stop-color="#7407E3"/>
</linearGradient>
<linearGradient id="paint5_linear_5626_4019" x1="12.049" y1="23.7129" x2="182.798" y2="23.7129" gradientUnits="userSpaceOnUse">
<stop stop-color="#E00CFF"/>
<stop offset="0.546875" stop-color="#A91BF5"/>
<stop offset="1" stop-color="#7407E3"/>
</linearGradient>
<linearGradient id="paint6_linear_5626_4019" x1="12.049" y1="23.7129" x2="182.798" y2="23.7129" gradientUnits="userSpaceOnUse">
<stop stop-color="#E00CFF"/>
<stop offset="0.546875" stop-color="#A91BF5"/>
<stop offset="1" stop-color="#7407E3"/>
</linearGradient>
<linearGradient id="paint7_linear_5626_4019" x1="12.049" y1="23.7129" x2="182.798" y2="23.7129" gradientUnits="userSpaceOnUse">
<stop stop-color="#E00CFF"/>
<stop offset="0.546875" stop-color="#A91BF5"/>
<stop offset="1" stop-color="#7407E3"/>
</linearGradient>
<linearGradient id="paint8_linear_5626_4019" x1="227.98" y1="39.1381" x2="236.571" y2="51.3815" gradientUnits="userSpaceOnUse">
<stop stop-color="#5D01D0"/>
<stop offset="0.532" stop-color="#C725FF"/>
<stop offset="1" stop-color="#EC00FF"/>
</linearGradient>
<linearGradient id="paint9_linear_5626_4019" x1="225.939" y1="3.89146" x2="248.544" y2="33.5721" gradientUnits="userSpaceOnUse">
<stop stop-color="#430078"/>
<stop offset="0.2927" stop-color="#6100DC"/>
<stop offset="0.6769" stop-color="#C725FF"/>
<stop offset="1" stop-color="#EC00FF"/>
</linearGradient>
<linearGradient id="paint10_linear_5626_4019" x1="215.563" y1="-3.72205" x2="243.821" y2="33.3812" gradientUnits="userSpaceOnUse">
<stop stop-color="#430078"/>
<stop offset="0.2927" stop-color="#6100DC"/>
<stop offset="0.6769" stop-color="#C725FF"/>
<stop offset="1" stop-color="#EC00FF"/>
</linearGradient>
</defs>
</svg>
